<?xml version="1.0" ?><svg viewBox="0 0 512 512" xmlns="http://www.w3.org/2000/svg"><title/><g data-name="/ OUTLINE" id="_OUTLINE"><path d="M424,152a72.25574,72.25574,0,0,0-9.25342.61487A95.95894,95.95894,0,0,0,266.95825,88.007a104.01334,104.01334,0,0,0-200.67651,53.74A79.98668,79.98668,0,0,0,96,296h72V280H96a64,64,0,1,1,64-64h16a79.91391,79.91391,0,0,0-94.28345-78.69751,87.99875,87.99875,0,1,1,159.62134,31.35278l13.32422,8.8584a104.09113,104.09113,0,0,0,16.23242-72.65252A79.98769,79.98769,0,0,1,399.157,156.42041,72.12117,72.12117,0,0,0,352,224h16a56,56,0,1,1,56,56H344v16h88v-.45514A71.99508,71.99508,0,0,0,424,152Z"/><path d="M360,336a24.02718,24.02718,0,0,0-24-24h-8V264a24.0275,24.0275,0,0,0-24-24H208a24.0275,24.0275,0,0,0-24,24v48h-8a24.02718,24.02718,0,0,0-24,24V448H136v24a24.02718,24.02718,0,0,0,24,24H352a24.02718,24.02718,0,0,0,24-24V448H360ZM200,264a8.00917,8.00917,0,0,1,8-8h96a8.00917,8.00917,0,0,1,8,8V408a8.00917,8.00917,0,0,1-8,8H208a8.00917,8.00917,0,0,1-8-8Zm-32,72a8.00917,8.00917,0,0,1,8-8h8v80a24.0275,24.0275,0,0,0,24,24h96a24.0275,24.0275,0,0,0,24-24V328h8a8.00917,8.00917,0,0,1,8,8V448H168ZM360,472a8.00917,8.00917,0,0,1-8,8H160a8.00917,8.00917,0,0,1-8-8v-8H360Z"/><rect height="16" width="80" x="216" y="280"/><rect height="16" width="80" x="216" y="312"/><rect height="16" width="80" x="216" y="344"/><rect height="16" width="80" x="216" y="376"/><path d="M440,312a145.39079,145.39079,0,0,1-32,91.40533V376H392v56h56V416H418.3689A161.28136,161.28136,0,0,0,456,312Z"/><path d="M73.46069,340.77472l16.88208,16.882,11.31446-11.31348L64,308.686,26.34277,346.34326l11.31446,11.31348,19.36621-19.36621a161.2726,161.2726,0,0,0,46.57422,96.62109l10.74511,10.74512,11.31446-11.31348-10.74512-10.74512A145.39821,145.39821,0,0,1,73.46069,340.77472Z"/></g></svg>